<svg xmlns="http://www.w3.org/2000/svg" viewBox="0 0 36 29" fill="none">
      <path
        d="M0 2.61952C0 1.42919 0.964955 0.464229 2.15529 0.464229H13.6182C14.8085 0.464229 15.7735 1.42918 15.7735 2.61952V7.37213C15.7735 8.56246 14.8085 9.52742 13.6182 9.52742H2.15529C0.964954 9.52742 0 8.56247 0 7.37213V2.61952Z"
        fill="#83CB16"
      />
      <path
        d="M17.5165 4.75172C17.5165 2.3838 19.436 0.464229 21.804 0.464229C29.3024 0.464229 35.381 6.54288 35.381 14.0413V15.3232C35.381 22.8216 29.3024 28.9002 21.804 28.9002C19.436 28.9002 17.5165 26.9806 17.5165 24.6127V4.75172Z"
        fill="#F33F5E"
      />
      <path
        d="M7.38005e-05 13.3385C7.38005e-05 12.1482 0.965029 11.1832 2.15536 11.1832H13.6182C14.8086 11.1832 15.7735 12.1482 15.7735 13.3385V26.7449C15.7735 27.9353 14.8086 28.9002 13.6182 28.9002H2.15536C0.965028 28.9002 7.38005e-05 27.9353 7.38005e-05 26.7449V13.3385Z"
        fill="#3B81F5"
      />
    </svg>